<?xml version="1.0" encoding="UTF-8" standalone="no"?>
<!-- Created with Inkscape (http://www.inkscape.org/) -->

<svg
   width="48.947914mm"
   height="48.947918mm"
   viewBox="0 0 48.947914 48.947918"
   version="1.1"
   id="svg1"
   xml:space="preserve"
   xmlns:xlink="http://www.w3.org/1999/xlink"
   xmlns="http://www.w3.org/2000/svg"
   xmlns:svg="http://www.w3.org/2000/svg"><defs
     id="defs1"><linearGradient
       id="linearGradient21"><stop
         style="stop-color:#006d48;stop-opacity:1;"
         offset="0"
         id="stop21" /><stop
         style="stop-color:#014f45;stop-opacity:1;"
         offset="1"
         id="stop22" /></linearGradient><linearGradient
       xlink:href="#linearGradient21"
       id="linearGradient22"
       x1="-148.92413"
       y1="228.4565"
       x2="-102.75435"
       y2="249.62315"
       gradientUnits="userSpaceOnUse"
       gradientTransform="translate(-28.437478)" /></defs><g
     id="layer1"
     transform="translate(363.49992,-294.9992)"><g
       id="g22"
       transform="translate(-185.07994,80.433333)"><path
         id="rect19"
         style="fill:url(#linearGradient22);stroke-width:5.29167;stroke-linecap:square"
         d="m -171.67308,214.56587 h 35.45417 c 3.73777,0 6.74687,3.00911 6.74687,6.74688 v 35.45416 c 0,3.73777 -3.0091,6.74688 -6.74687,6.74688 h -35.45417 c -3.73777,0 -6.74687,-3.00911 -6.74687,-6.74688 v -35.45416 c 0,-3.73777 3.0091,-6.74688 6.74687,-6.74688 z" /><path
         id="path17"
         style="fill:#ffffff;stroke-width:5.29167;stroke-linecap:square"
         d="m -142.12635,221.41016 -1.71463,1.86656 h -21.41213 l -3.8101,-1.56218 v 13.35216 h 0.49558 c 1.29539,0 2.70521,-0.6095 2.97191,-0.9524 l 0.19017,-0.49558 -0.15245,0.38137 v -0.49557 h 9.15758 v 5.20851 h -5.59552 l -3.92431,-1.52394 c 0,10.69845 -1.19927,13.47806 -6.82077,19.09957 l 0.45733,0.38085 c 8.4997,-4.9073 9.71621,-9.3012 9.71621,-16.85164 h 6.16706 v 16.07598 h 0.72399 c 1.37159,0 2.97191,-0.87643 2.97191,-1.29553 v -14.78045 h 5.7981 c 0,7.25672 2.13086,11.66997 5.97896,15.28946 1.29539,1.2573 3.00972,2.01957 4.15272,0.91468 0.5334,-0.5715 0.34328,-1.60036 -0.45682,-3.12436 l 0.41909,-5.41001 -0.45733,-0.0765 c -0.3048,1.2954 -0.72399,2.591 -1.14309,3.6959 -0.1524,0.4572 -0.34284,0.53307 -0.68574,0.19017 -2.4003,-2.2479 -4.43506,-6.24915 -4.22662,-10.98378 0.8001,-0.0762 1.33358,-0.34309 1.56218,-0.60979 l -3.61942,-2.97191 h -0.15244 l -1.79059,1.98128 h -5.379 v -5.20851 h 9.20667 v 1.29553 h 0.57154 c 1.143,0 2.93382,-0.6096 2.97192,-0.8382 v -8.97051 c 0.762,-0.1524 1.3713,-0.49515 1.5999,-0.79995 z m -23.43165,2.93368 h 5.06739 v 8.05583 h -5.06739 z m 8.30595,0 h 5.21984 v 8.05583 h -0.67231 -3.6959 -0.85163 z m 8.4584,0 h 5.2958 v 8.05583 h -5.2958 z" /></g></g></svg>
