<?xml version="1.0" encoding="UTF-8" standalone="no"?>
<!-- Created with Inkscape (http://www.inkscape.org/) -->

<svg
   width="132.29167mm"
   height="132.29167mm"
   viewBox="0 0 132.29167 132.29167"
   version="1.1"
   id="svg1"
   xmlns="http://www.w3.org/2000/svg"
   xmlns:svg="http://www.w3.org/2000/svg">
  <defs
     id="defs1" />
  <g
     id="layer1">
    <g
       id="g9">
      <rect
         style="fill:#014f41;fill-opacity:1;stroke:none;stroke-width:0.79375;stroke-linecap:square"
         id="rect1"
         width="132.29167"
         height="132.29167"
         x="1.1365903e-06"
         y="-2.8227582e-06"
         ry="21.352442" />
      <path
         id="rect2"
         style="color:#000000;fill:#ffffff;stroke-linecap:round;stroke-linejoin:round;-inkscape-stroke:none"
         d="M 29.638501 24.101371 A 2.6460995 2.6460995 0 0 0 26.994218 26.748238 L 26.994218 50.802584 A 2.6460995 2.6460995 0 0 0 29.638501 53.449451 L 53.961047 53.449451 L 63.476746 53.449451 L 63.476746 76.252193 L 34.851619 76.252193 A 2.6460995 2.6460995 0 0 0 32.208887 79.046855 C 32.877695 90.872978 29.81193 100.51594 22.4901 108.3846 A 2.6458349 2.6458349 0 0 0 22.624976 112.12287 A 2.6458349 2.6458349 0 0 0 26.365316 111.98851 C 34.060845 103.71824 37.499667 93.293957 37.414254 81.542826 L 63.476746 81.542826 L 63.476746 110.41031 A 2.6458349 2.6458349 0 0 0 66.123096 113.0546 A 2.6458349 2.6458349 0 0 0 68.767379 110.41031 L 68.767379 81.542826 L 94.876896 81.542826 C 94.791476 93.293964 98.232368 103.71824 105.9279 111.98851 A 2.6458349 2.6458349 0 0 0 109.66617 112.12287 A 2.6458349 2.6458349 0 0 0 109.80053 108.3846 C 102.4787 100.51594 99.413456 90.872978 100.08226 79.046855 A 2.6460995 2.6460995 0 0 0 97.441597 76.252193 L 68.767379 76.252193 L 68.767379 53.449451 L 78.283077 53.449451 L 102.60562 53.449451 A 2.6460995 2.6460995 0 0 0 105.25197 50.802584 L 105.25197 26.748238 A 2.6460995 2.6460995 0 0 0 102.60562 24.101371 L 78.283077 24.101371 L 53.961047 24.101371 L 29.638501 24.101371 z M 32.285368 29.392521 L 51.316248 29.392521 L 51.316248 48.158301 L 32.285368 48.158301 L 32.285368 29.392521 z M 56.607397 29.392521 L 75.638794 29.392521 L 75.638794 48.158301 L 56.607397 48.158301 L 56.607397 29.392521 z M 80.929944 29.392521 L 99.960824 29.392521 L 99.960824 48.158301 L 80.929944 48.158301 L 80.929944 29.392521 z " />
    </g>
  </g>
</svg>
